#N canvas 642 423 834 513 10;
#X obj 353 153 notein;
#X floatatom 307 206 5 0 0 3 pitch - -;
#X floatatom 356 205 5 0 0 3 velocity - -;
#X floatatom 413 206 5 0 0 3 channel - -;
#X obj 357 258 mtof;
#X obj 357 293 osc~;
#X obj 358 391 dac~;
#X obj 433 291 line~;
#X obj 357 331 *~;
#X connect 0 0 1 0;
#X connect 0 1 2 0;
#X connect 0 2 3 0;
#X connect 1 0 4 0;
#X connect 2 0 7 0;
#X connect 4 0 5 0;
#X connect 5 0 8 0;
#X connect 7 0 8 1;
#X connect 8 0 6 0;
