#N canvas 802 391 781 540 12;
#X obj 147 35 notein;
#X obj 147 74 mtof;
#X obj 147 122 phasor~ 0;
#X obj 146 283 tabread~ table1;
#X obj 146 338 dac~;
#X obj 224 194 * 441;
#X floatatom 225 152 5 0 0 0 - - -;
#X obj 463 333 loadbang;
#X msg 462 372 read nes_square.wav table1;
#X obj 462 412 soundfiler;
#N canvas 0 22 450 278 (subpatch) 0;
#X array table1 44103 float 0;
#X coords 0 1.02 44102 -1.02 200 140 1 0 0;
#X restore 385 61 graph;
#X obj 146 222 *~ 1;
#X connect 0 0 1 0;
#X connect 1 0 2 0;
#X connect 2 0 11 0;
#X connect 3 0 4 0;
#X connect 5 0 11 1;
#X connect 6 0 5 0;
#X connect 7 0 8 0;
#X connect 8 0 9 0;
#X connect 11 0 3 0;
